<svg width="20" height="20" viewBox="0 0 20 20" fill="none" xmlns="http://www.w3.org/2000/svg">
<g clip-path="url(#clip0_5178_28485)">
<path d="M0 10C0 5.28595 0 2.92893 1.46447 1.46447C2.92893 0 5.28595 0 10 0C14.714 0 17.0711 0 18.5355 1.46447C20 2.92893 20 5.28595 20 10C20 14.714 20 17.0711 18.5355 18.5355C17.0711 20 14.714 20 10 20C5.28595 20 2.92893 20 1.46447 18.5355C0 17.0711 0 14.714 0 10Z" fill="#34C724"/>
<path d="M15.7291 9.99992C15.7291 13.164 13.164 15.7291 9.99998 15.7291C6.83592 15.7291 4.27081 13.164 4.27081 9.99992C4.27081 6.83586 6.83592 4.27075 9.99998 4.27075C13.164 4.27075 15.7291 6.83586 15.7291 9.99992ZM14.6875 9.99992C14.6875 7.41112 12.5885 5.31242 9.99998 5.31242C7.41144 5.31242 5.31248 7.41112 5.31248 9.99992C5.31248 12.5887 7.41144 14.6874 9.99998 14.6874C12.5885 14.6874 14.6875 12.5887 14.6875 9.99992ZM8.43748 7.91659H11.5625C11.8489 7.91659 12.0833 8.14966 12.0833 8.43742V11.5624C12.0833 11.8502 11.8489 12.0833 11.5625 12.0833H8.43748C8.15102 12.0833 7.91665 11.8502 7.91665 11.5624V8.43742C7.91665 8.14966 8.15102 7.91659 8.43748 7.91659Z" fill="white"/>
</g>
<defs>
<clipPath id="clip0_5178_28485">
<rect width="20" height="20" fill="white"/>
</clipPath>
</defs>
</svg>
